<?xml version="1.0" encoding="utf-8"?>
<!-- Generator: Adobe Illustrator 26.3.1, SVG Export Plug-In . SVG Version: 6.00 Build 0)  -->
<svg version="1.1" xmlns="http://www.w3.org/2000/svg" xmlns:xlink="http://www.w3.org/1999/xlink" x="0px" y="0px"
	 viewBox="0 0 35 35" style="enable-background:new 0 0 35 35;" xml:space="preserve">
<style type="text/css">
	.st0{fill:#101010;}
	.st1{fill:#0DADA9;}
	.st2{fill:#4DACA9;}
	.st3{fill:#795099;}
	.st4{fill:#FFFFFF;}
	.st5{fill:#282828;}
	.st6{fill:#232323;}
	.st7{fill:#0DADA9;stroke:#232323;stroke-width:4;stroke-miterlimit:10;}
	.st8{fill:#C07539;}
	.st9{fill:#909090;}
	.st10{fill:#C09943;}
	.st11{fill:#A7A7A7;}
</style>
<g id="background">
</g>
<g id="Layer_1">
	<path class="st2" d="M33.177,4.387c-0.024-0.001-0.048-0.001-0.072-0.001c-0.448,0-0.861,0.168-1.128,0.309
		c-0.737,0.389-1.309,0.562-1.857,0.562c-0.053,0-0.106-0.002-0.158-0.005c-0.03-0.002-0.059-0.004-0.089-0.005
		c-0.27-0.016-0.404-0.029-0.466-0.083c-1.654-1.464-3.5-2.207-5.487-2.207c-0.67,0-1.359,0.087-2.05,0.258
		c-1.684,0.417-3.081,1.161-4.151,2.212c-1.105,1.085-1.861,2.495-2.248,4.191c-0.069,0.305-0.107,0.605-0.135,0.898
		c-1.272-0.239-2.499-0.618-3.657-1.132C9.366,8.357,7.362,6.855,5.724,4.919c-0.436-0.515-1.001-0.799-1.59-0.799
		c-0.727,0-1.372,0.419-1.771,1.149c-1.116,2.045-1.359,4.193-0.723,6.384c0.074,0.256,0.165,0.499,0.258,0.733
		c-0.122,0.107-0.234,0.232-0.33,0.382c-0.297,0.463-0.314,0.979-0.296,1.377c0.025,0.532,0.087,1.029,0.185,1.48
		c0.328,1.508,1.05,2.847,2.149,3.991c-0.158,0.458-0.117,0.887,0.101,1.471c0.509,1.36,1.268,2.469,2.257,3.296
		c0.222,0.186,0.452,0.36,0.683,0.526c-1.033,0.308-2.111,0.464-3.205,0.464c-0.425,0-0.862-0.024-1.298-0.07
		c-0.076-0.008-0.152-0.012-0.227-0.012c-0.849,0-1.545,0.515-1.817,1.343c-0.281,0.856,0.028,1.736,0.786,2.242
		c0.225,0.15,0.474,0.302,0.783,0.477c3.154,1.785,6.577,2.691,10.175,2.691c0.47,0,0.95-0.015,1.427-0.046
		c2.65-0.169,5.157-0.808,7.452-1.897c3.425-1.626,6.306-4.181,8.33-7.389c2.004-3.176,3.077-6.846,3.105-10.619c0,0,0,0,0-0.001
		c0.169-0.21,0.348-0.415,0.537-0.632c0.331-0.379,0.673-0.771,0.977-1.21C34.55,8.984,34.984,7.722,35,6.392
		C35.013,5.292,34.229,4.43,33.177,4.387z M29.637,10.29c-0.379,0.279-0.53,0.634-0.516,1.098c0.14,4.474-1.251,8.425-4.172,11.802
		c-2.913,3.368-6.645,5.224-11.057,5.731c-2.495,0.287-4.942,0.053-7.339-0.698c-0.068-0.021-0.133-0.052-0.27-0.106
		c0.453-0.119,0.838-0.211,1.217-0.322c1.65-0.482,3.164-1.236,4.535-2.274c0.44-0.333,0.595-0.741,0.46-1.194
		c-0.137-0.46-0.462-0.724-1.03-0.754c-1.572-0.083-2.886-0.694-3.94-1.864c-0.091-0.101-0.17-0.212-0.269-0.336
		c0.494-0.093,0.946-0.151,1.384-0.267c0.646-0.171,0.946-0.809,0.703-1.416c-0.165-0.412-0.509-0.569-0.91-0.661
		c-1.249-0.288-2.281-0.933-3.041-1.961c-0.358-0.483-0.617-1.04-0.956-1.623c0.599,0.065,1.08,0.137,1.565,0.163
		c0.574,0.031,0.96-0.233,1.119-0.711c0.159-0.477,0.001-0.903-0.475-1.243c-1.649-1.18-2.441-2.772-2.305-4.806
		c0.017-0.258,0.076-0.514,0.123-0.825c0.111,0.098,0.183,0.157,0.249,0.221c3.356,3.225,7.346,5.06,11.984,5.479
		c0.217,0.02,0.435,0.044,0.653,0.05c0.758,0.02,1.258-0.565,1.098-1.304c-0.291-1.346-0.154-2.625,0.568-3.817
		c1.664-2.749,5.887-3.807,8.549-1.096c0.465,0.474,1.06,0.607,1.67,0.638c0.65,0.033,1.305-0.026,1.958-0.045
		c0.074-0.002,0.148-0.009,0.269-0.016C30.975,8.993,30.402,9.725,29.637,10.29z"/>
</g>
</svg>
