<?xml version="1.0" encoding="utf-8"?>
<!-- Generator: Adobe Illustrator 26.3.1, SVG Export Plug-In . SVG Version: 6.00 Build 0)  -->
<svg version="1.1" xmlns="http://www.w3.org/2000/svg" xmlns:xlink="http://www.w3.org/1999/xlink" x="0px" y="0px"
	 viewBox="0 0 35 35" style="enable-background:new 0 0 35 35;" xml:space="preserve">
<style type="text/css">
	.st0{fill:#101010;}
	.st1{fill:#0DADA9;}
	.st2{fill:#4DACA9;}
	.st3{fill:#795099;}
	.st4{fill:#FFFFFF;}
	.st5{fill:#282828;}
	.st6{fill:#232323;}
	.st7{fill:#0DADA9;stroke:#232323;stroke-width:4;stroke-miterlimit:10;}
	.st8{fill:#C07539;}
	.st9{fill:#909090;}
	.st10{fill:#C09943;}
	.st11{fill:#A7A7A7;}
</style>
<g id="background">
</g>
<g id="Layer_1">
	<path class="st2" d="M32.494,7.359c0-1.218-0.388-2.317-1.121-3.18c-0.726-0.854-1.738-1.414-2.929-1.621l-0.006-0.002
		c-0.021-0.009-0.043-0.018-0.064-0.026l-0.031-0.011C28.309,2.506,28.273,2.5,28.236,2.5H6.768c-0.031,0-0.062,0.005-0.092,0.014
		L6.65,2.522C6.513,2.564,6.374,2.601,6.226,2.64C5.885,2.731,5.532,2.824,5.193,2.988c-1.447,0.7-2.33,1.878-2.624,3.501
		c-0.004,0.024-0.015,0.06-0.025,0.095C2.536,6.611,2.528,6.637,2.521,6.663L2.505,6.726v21.501c0,0.032,0.005,0.063,0.014,0.094
		l0.008,0.027c0.044,0.141,0.083,0.285,0.124,0.44c0.095,0.357,0.194,0.726,0.373,1.078c0.852,1.669,2.241,2.569,4.017,2.602
		C8.245,32.49,9.565,32.5,11.196,32.5c0.886,0,1.768-0.003,2.638-0.006c0.904-0.003,0.988-0.005,1.907-0.006
		c0.074,0,0.983-0.013,1.025-0.023c0.005-0.001-0.841-0.003-0.835-0.004l0.149-0.028c0.148-0.028,0.254-0.157,0.254-0.307V21.722
		c0-0.173-0.14-0.313-0.313-0.313h-2.735c-0.173,0-0.313-0.14-0.313-0.313v-2.199c0-0.173,0.14-0.313,0.313-0.313h2.752
		c0.173,0,0.313-0.14,0.313-0.313l0-1.474c0-0.878-0.001-2.395,0.001-3.273c0.004-2.239,2.482-3.867,4.718-3.872
		c0.871-0.002,1.743-0.001,2.614-0.001l0.692,0c0.173,0,0.313,0.14,0.313,0.313v1.779c0,0.173-0.14,0.313-0.313,0.313l-0.366,0
		c-0.677,0-1.353,0-2.03,0c-1.461,0.002-2.369,0.905-2.371,2.357c-0.001,0.796,0,2.232,0.001,3.028l0.001,0.754
		c0,0.078,0.016,0.138,0.027,0.175c0.002,0.009,0.005,0.02,0.009,0.035l0.003,0.005c0.055,0.1,0.16,0.161,0.274,0.161H24.1
		c0.19,0,0.337,0.168,0.31,0.357l-0.311,2.204c-0.022,0.154-0.154,0.269-0.31,0.269h-3.851c-0.173,0-0.313,0.14-0.313,0.313v10.463
		c0,0.173,0.14,0.313,0.313,0.313h0.414c0.534-0.001,1.069-0.001,1.603,0l0.685,0.001c1.663,0.002,3.383,0.003,5.075-0.004
		c2.303-0.009,4.179-1.523,4.668-3.767c0.071-0.325,0.107-0.69,0.107-1.088C32.496,21.526,32.497,14.894,32.494,7.359z
		 M27.271,16.091h-4.644c-0.173,0-0.313-0.14-0.313-0.313V15.07c0-0.173,0.14-0.313,0.313-0.313h4.44
		c0.173,0,0.313-0.14,0.313-0.313V7.271c0-0.173-0.14-0.313-0.313-0.313h-0.442c-0.575,0-1.149,0-1.724-0.001
		c-1.259-0.001-2.561-0.002-3.856,0.002c-2.86,0.008-6.083,1.686-7.041,4.379c-0.234,0.659-0.348,1.368-0.346,2.169
		c0.001,0.538,0.001,1.716,0.001,2.263v0c0,0.173-0.14,0.313-0.313,0.313h-2.756c-0.173,0-0.313,0.14-0.313,0.313v7.157
		c0,0.173,0.14,0.313,0.313,0.313h2.736c0.173,0,0.313,0.14,0.313,0.313v5.305c0,0.173-0.14,0.313-0.313,0.313l-1.286,0
		c-1.808,0.001-2.825,0.001-4.662-0.001c-1.064-0.001-1.831-0.566-2.104-1.55c-0.05-0.18-0.074-0.392-0.074-0.65
		C5.196,21.245,5.195,14.633,5.198,7.381c0-1.308,0.882-2.187,2.193-2.188c6.621-0.002,13.423-0.002,20.216,0
		c1.312,0,2.194,0.879,2.195,2.186c0.003,7.091,0.003,13.713,0,20.245c-0.001,1.244-0.82,2.132-1.992,2.159
		c-1.387,0.032-2.802,0.025-4.171,0.018c-0.337-0.002-0.675-0.003-1.014-0.005c-0.172-0.001-0.312-0.14-0.312-0.313v-5.284
		c0-0.173,0.14-0.313,0.313-0.313h3.451c0.153,0,0.284-0.111,0.309-0.262l1.195-7.169C27.612,16.265,27.465,16.091,27.271,16.091z"
		/>
</g>
</svg>
