<?xml version="1.0" encoding="utf-8"?>
<!-- Generator: Adobe Illustrator 26.3.1, SVG Export Plug-In . SVG Version: 6.00 Build 0)  -->
<svg version="1.1" xmlns="http://www.w3.org/2000/svg" xmlns:xlink="http://www.w3.org/1999/xlink" x="0px" y="0px"
	 viewBox="0 0 35 35" style="enable-background:new 0 0 35 35;" xml:space="preserve">
<style type="text/css">
	.st0{fill:#101010;}
	.st1{fill:#0DADA9;}
	.st2{fill:#4DACA9;}
	.st3{fill:#795099;}
	.st4{fill:#FFFFFF;}
	.st5{fill:#282828;}
	.st6{fill:#232323;}
	.st7{fill:#0DADA9;stroke:#232323;stroke-width:4;stroke-miterlimit:10;}
	.st8{fill:#C07539;}
	.st9{fill:#909090;}
	.st10{fill:#C09943;}
	.st11{fill:#A7A7A7;}
</style>
<g id="background">
</g>
<g id="Layer_1">
	<g>
		<path class="st2" d="M32.248,10.144c-0.163-4.156-3.203-7.298-7.347-7.484c-2.438-0.11-4.882-0.16-7.326-0.16v0
			c-0.025,0-0.05,0-0.075,0c-0.025,0-0.05,0-0.075,0v0c-2.444-0.001-4.888,0.05-7.326,0.16c-4.144,0.186-7.184,3.327-7.347,7.484
			c-0.19,4.844-0.182,9.707-0.009,14.552c0.147,4.117,3.114,7.053,7.18,7.578c0.341,0.044,0.674,0.149,1.01,0.226
			c2.025,0,4.049,0,6.074,0c0.131,0,0.262,0,0.393,0c2.089,0,4.64,0,6.666,0c0.337-0.077,0.67-0.182,1.01-0.226
			c4.066-0.525,7.032-3.461,7.18-7.578C32.43,19.85,32.438,14.988,32.248,10.144z M29.493,24.594
			c-0.159,3.179-2.227,4.966-5.417,5.045c-2.065,0.051-4.673,0.081-6.786,0.085c-2.123-0.003-4.246-0.033-6.367-0.085
			c-3.189-0.079-5.258-1.866-5.417-5.045c-0.236-4.723-0.246-9.474-0.012-14.196c0.161-3.256,2.181-5.022,5.475-5.121
			c2.142-0.064,4.286-0.1,6.43-0.103l0.042,0c0.02,0,0.039,0,0.059,0c2.178,0.002,4.355,0.038,6.531,0.103
			c3.294,0.099,5.314,1.866,5.475,5.121C29.739,15.12,29.729,19.871,29.493,24.594z"/>
		<path class="st2" d="M25.281,17.401c0.016,4.299-3.45,7.793-7.725,7.787c-4.212-0.006-7.683-3.464-7.722-7.694
			c-0.04-4.243,3.495-7.796,7.748-7.788C21.809,9.714,25.265,13.168,25.281,17.401z M17.568,22.438
			c2.786-0.001,5.008-2.214,5.01-4.99c0.002-2.776-2.222-4.991-5.008-4.989c-2.792,0.002-4.997,2.202-4.998,4.987
			C12.57,20.227,14.784,22.439,17.568,22.438z"/>
		<path class="st2" d="M27.389,9.43c-0.012,0.992-0.812,1.768-1.81,1.754c-1.009-0.014-1.762-0.793-1.746-1.808
			c0.016-0.992,0.828-1.794,1.8-1.776C26.603,7.619,27.4,8.449,27.389,9.43z"/>
	</g>
</g>
</svg>
