<?xml version="1.0" encoding="utf-8"?>
<!-- Generator: Adobe Illustrator 26.0.2, SVG Export Plug-In . SVG Version: 6.00 Build 0)  -->
<svg version="1.1" xmlns="http://www.w3.org/2000/svg" xmlns:xlink="http://www.w3.org/1999/xlink" x="0px" y="0px"
	 viewBox="0 0 660.248 99.597" style="enable-background:new 0 0 660.248 99.597;" xml:space="preserve">
<style type="text/css">
	.st0{display:none;}
	.st1{display:inline;}
	.st2{fill:#FFFFFF;}
	.st3{fill:#0F0E0F;}
	.st4{fill:#00AFAA;}
</style>
<g id="HIDE_TO_EXPORT" class="st0">
	<g id="backgrounds" class="st1">
		<rect x="-133.647" y="-203.753" class="st3" width="1149.001" height="1560.756"/>
	</g>
</g>
<g id="FIN_Design">
	<g>
		<g>
			<path class="st4" d="M0,97.55l17.305-81.946h65.531l-4.708,22.141H43.391l-1.527,7.381h29.902L66.931,68.03H37.028L30.793,97.55
				H0z"/>
			<path class="st4" d="M77.618,97.55l17.305-81.946h38.938c6.786,0,12.808,1.231,18.068,3.69
				c5.259,2.462,9.395,6.002,12.407,10.625c3.01,4.625,4.517,10.243,4.517,16.86c0,1.612-0.107,3.267-0.318,4.962
				c-0.212,1.698-0.53,3.479-0.954,5.345c-2.121,9.416-5.217,17.114-9.289,23.095c-4.071,5.98-9.479,10.371-16.224,13.17
				c-6.744,2.8-15.249,4.199-25.513,4.199H77.618z M113.374,74.137h4.581c3.392,0,6.255-0.424,8.589-1.272
				c2.332-0.847,4.282-2.501,5.853-4.963c1.569-2.459,2.863-6.063,3.882-10.815c0.423-1.696,0.699-3.201,0.827-4.518
				c0.127-1.313,0.19-2.522,0.19-3.626c0-3.478-0.998-5.704-2.99-6.681c-1.994-0.975-5.111-1.463-9.353-1.463h-4.581L113.374,74.137
				z"/>
			<path class="st4" d="M199.008,98.823c-5.77,0-11.219-0.489-16.351-1.463c-5.134-0.975-9.309-2.396-12.534-4.263l4.836-23.032
				c3.646,1.953,7.825,3.563,12.533,4.836s9.013,1.908,12.916,1.908c2.714,0,4.877-0.359,6.489-1.081
				c1.61-0.72,2.417-1.76,2.417-3.118c0-1.355-1.23-2.417-3.689-3.181c-2.462-0.764-5.643-1.95-9.544-3.562
				c-5.43-2.291-9.501-4.855-12.215-7.699c-2.716-2.841-4.072-6.553-4.072-11.134c0-2.29,0.296-4.664,0.891-7.126
				c1.865-8.652,5.98-15.078,12.343-19.277s16.075-6.299,29.14-6.299c2.714,0,5.682,0.191,8.907,0.573
				c3.223,0.382,6.362,0.87,9.416,1.463c3.054,0.595,5.641,1.23,7.762,1.909l-4.963,23.158c-4.157-1.95-7.952-3.265-11.388-3.944
				c-3.437-0.678-6.512-1.019-9.226-1.019c-1.527,0-3.098,0.086-4.708,0.255c-1.612,0.171-2.99,0.509-4.136,1.018
				c-1.146,0.51-1.718,1.272-1.718,2.291c0,1.018,0.91,1.803,2.735,2.354c1.823,0.553,4.602,1.422,8.335,2.608
				c7.126,2.122,12.066,4.794,14.824,8.017c2.756,3.226,4.136,7.126,4.136,11.707c0,1.272-0.086,2.589-0.255,3.944
				c-0.171,1.358-0.426,2.8-0.764,4.326c-1.104,5.176-3.244,9.715-6.426,13.615c-3.181,3.903-7.656,6.915-13.424,9.035
				C215.506,97.761,208.084,98.823,199.008,98.823z"/>
			<path class="st4" d="M238.453,97.55l48.862-81.946h31.938l13.349,76.754l-4.819,5.193h-24.817l-2.672-15.27h-19.851l-9.034,15.27
				H238.453z M288.206,61.286h12.471l-2.927-15.651L288.206,61.286z"/>
		</g>
		<g>
			<path class="st2" d="M420.601,32.394h2.288V19.383h-2.288v-3.717h15.241v6.033h-4.289v-1.744h-3.546v4.432h6.005v4.003h-6.005
				v4.003h2.574v3.717h-9.979V32.394z"/>
			<path class="st2" d="M443.682,32.394h2.288V19.383h-2.288v-3.717h15.756v6.033h-4.29v-2.03h-4.061v4.146h5.977v4.003h-5.977
				v4.289h4.404v-2.03h4.289v6.034h-16.099V32.394z"/>
			<path class="st2" d="M468.251,32.394h2.288V19.383h-2.288v-3.717h7.463l6.405,10.837c0.257,0.429,0.458,0.915,0.601,1.344
				l0.257,0.744h0.114l-0.085-0.801c-0.086-0.458-0.086-1.029-0.086-1.487v-6.92h-2.402v-3.717h9.808v3.717h-2.288v16.728h-5.147
				l-6.434-10.78c-0.229-0.429-0.458-0.915-0.601-1.344l-0.257-0.744h-0.114l0.086,0.801c0.085,0.458,0.085,1.029,0.085,1.487v6.863
				h2.402v3.717h-9.808V32.394z"/>
			<path class="st2" d="M498.54,32.966l8.721-12.353c0.2-0.314,0.4-0.515,0.601-0.715l0.314-0.257v-0.057
				c-0.143,0-0.257,0-0.4,0.028c-0.229,0.029-0.515,0.058-0.829,0.058h-4.003v2.888h-4.289v-6.891h15.699v3.088l-8.75,12.41
				c-0.2,0.314-0.4,0.486-0.6,0.686l-0.315,0.286v0.057l0.4-0.057c0.229-0.029,0.515-0.029,0.83-0.029h4.489v-3.002h4.289v7.006
				H498.54V32.966z"/>
			<path class="st2" d="M523.137,32.394h2.288V19.383h-2.288v-3.717h9.693v3.717h-2.288v13.011h2.288v3.717h-9.693V32.394z"/>
			<path class="st2" d="M420.63,63.89h2.431V49.22h-2.431V46.39h8.779c1.63,0,2.888,0.057,4.232,0.486
				c3.975,1.144,6.577,4.689,6.577,9.665c0,4.833-2.402,8.264-6.291,9.551c-1.373,0.486-2.774,0.601-4.49,0.601h-8.807V63.89z
				 M429.265,63.69c1.287,0,2.316-0.086,3.317-0.515c2.316-0.944,3.775-3.289,3.775-6.634c0-3.46-1.516-5.776-3.918-6.691
				c-1.029-0.429-1.944-0.458-3.174-0.458h-2.459V63.69H429.265z"/>
			<path class="st2" d="M458.982,46.047c6.005,0,10.523,4.546,10.523,10.351c0,5.977-4.518,10.638-10.523,10.638
				c-6.005,0-10.523-4.661-10.523-10.638C448.459,50.593,452.976,46.047,458.982,46.047z M458.982,63.747
				c3.66,0,6.663-3.146,6.663-7.349c0-4.003-3.002-7.062-6.663-7.062s-6.663,3.06-6.663,7.062
				C452.319,60.601,455.322,63.747,458.982,63.747z"/>
			<path class="st2" d="M488.384,46.047c3.632,0,7.949,1.401,7.949,4.003v2.802h-3.402v-1.487c0-1.401-2.202-2.116-4.375-2.116
				c-4.318,0-7.006,2.745-7.006,7.063c0,4.346,2.688,7.521,7.177,7.521c1.63,0,4.661-0.429,4.661-2.116v-2.173h-3.689v-2.802h7.092
				v6.12c0,3.088-5.433,4.175-8.436,4.175c-6.234,0-10.695-4.518-10.695-10.58C477.66,50.393,482.064,46.047,488.384,46.047z"/>
			<path class="st2" d="M521.763,60.144v1.516c0,1.287,1.659,2.087,3.574,2.087c2.059,0,3.517-0.886,3.517-2.516
				c0-2.03-2.316-2.717-4.661-3.632c-2.717-1.058-5.376-2.23-5.376-5.891c0-4.089,3.289-5.662,6.806-5.662
				c3.203,0,6.434,1.201,6.434,3.574v2.66h-3.403v-1.373c0-1.029-1.515-1.572-3.031-1.572c-1.659,0-3.031,0.686-3.031,2.23
				c0,1.888,1.916,2.488,4.003,3.317c3.06,1.058,6.062,2.316,6.062,6.09c0,4.146-3.488,6.063-7.32,6.063
				c-3.374,0-6.977-1.516-6.977-4.575v-2.316H521.763z"/>
			<path class="st2" d="M541.155,63.89h2.431V49.22h-2.431V46.39h9.722c1.23,0,2.431,0.085,3.432,0.515
				c2.202,0.915,3.631,3.146,3.631,6.005c0,2.888-1.487,5.347-3.86,6.176c-0.943,0.315-1.973,0.4-3.117,0.4h-3.631v4.404h2.459
				v2.802h-8.636V63.89z M550.477,56.484c0.829,0,1.515-0.143,2.059-0.4c1.115-0.543,1.659-1.687,1.659-3.174
				c0-1.401-0.543-2.488-1.487-3.031c-0.543-0.314-1.258-0.486-2.202-0.486h-3.174v7.091H550.477z"/>
			<path class="st2" d="M576.133,46.047c6.005,0,10.523,4.546,10.523,10.351c0,5.977-4.518,10.638-10.523,10.638
				s-10.523-4.661-10.523-10.638C565.61,50.593,570.128,46.047,576.133,46.047z M576.133,63.747c3.66,0,6.663-3.146,6.663-7.349
				c0-4.003-3.002-7.062-6.663-7.062s-6.663,3.06-6.663,7.062C569.47,60.601,572.472,63.747,576.133,63.747z"/>
			<path class="st2" d="M595.011,63.89h2.431V49.22h-2.431V46.39h8.95c1.487,0,2.717,0.085,3.86,0.429
				c2.288,0.772,3.746,2.574,3.746,5.433s-1.458,4.833-3.832,5.633v0.057l0.343,0.257c0.2,0.2,0.458,0.429,0.658,0.801l2.345,4.232
				c0.314,0.543,0.687,0.658,1.373,0.658h0.658v2.802h-2.373c-1.659,0-2.202-0.343-2.831-1.516l-2.888-5.233
				c-0.429-0.772-0.801-1.029-1.973-1.029h-1.858v4.976h2.345v2.802h-8.521V63.89z M604.562,55.912c1.973,0,3.26-1.172,3.26-3.346
				c0-1.344-0.486-2.345-1.601-2.802c-0.543-0.257-1.315-0.372-2.288-0.372h-2.745v6.52H604.562z"/>
			<path class="st2" d="M624.87,63.89h2.431V49.392h-3.832v3.06h-3.174V46.39h17.786v6.062h-3.174v-3.06h-3.86V63.89h2.459v2.802
				h-8.636V63.89z"/>
			<path class="st2" d="M649.353,60.144v1.516c0,1.287,1.659,2.087,3.574,2.087c2.059,0,3.517-0.886,3.517-2.516
				c0-2.03-2.316-2.717-4.661-3.632c-2.717-1.058-5.376-2.23-5.376-5.891c0-4.089,3.289-5.662,6.806-5.662
				c3.203,0,6.434,1.201,6.434,3.574v2.66h-3.402v-1.373c0-1.029-1.516-1.572-3.031-1.572c-1.659,0-3.031,0.686-3.031,2.23
				c0,1.888,1.916,2.488,4.003,3.317c3.06,1.058,6.062,2.316,6.062,6.09c0,4.146-3.488,6.063-7.32,6.063
				c-3.374,0-6.977-1.516-6.977-4.575v-2.316H649.353z"/>
			<path class="st2" d="M419.543,94.47h1.858l6.091-17.5h4.261l6.091,17.5h1.858v2.802h-7.635V94.47h2.001l-1.258-3.803h-6.405
				l-1.258,3.803h2.001v2.802h-7.606V94.47z M431.953,87.751l-1.916-5.748l-0.314-1.258c-0.029-0.2-0.057-0.372-0.057-0.515h-0.086
				l-0.086,0.515c-0.085,0.314-0.143,0.715-0.286,1.258l-1.944,5.748H431.953z"/>
			<path class="st2" d="M457.094,76.627c2.459,0,7.921,0.858,7.921,4.061v2.745h-3.403V81.86c0-1.516-2.659-2.03-4.347-2.03
				c-3.889,0-6.777,2.773-6.777,7.034c0,4.547,2.974,7.549,6.977,7.549c1.23,0,4.404-0.4,4.404-2.002v-1.573h3.403v2.774
				c0,3.031-5.204,4.003-8.035,4.003c-6.177,0-10.609-4.632-10.609-10.58C446.629,81.03,451.204,76.627,457.094,76.627z"/>
			<path class="st2" d="M472.771,94.47h1.858l6.091-17.5h4.261l6.091,17.5h1.858v2.802h-7.635V94.47h2.001l-1.258-3.803h-6.405
				l-1.258,3.803h2.001v2.802h-7.606V94.47z M485.181,87.751l-1.916-5.748l-0.314-1.258c-0.029-0.2-0.057-0.372-0.057-0.515h-0.086
				l-0.086,0.515c-0.085,0.314-0.143,0.715-0.286,1.258l-1.944,5.748H485.181z"/>
			<path class="st2" d="M500.427,94.47h2.431V79.801h-2.431V76.97h8.779c1.63,0,2.888,0.057,4.232,0.486
				c3.975,1.144,6.577,4.689,6.577,9.665c0,4.833-2.402,8.264-6.291,9.551c-1.373,0.486-2.774,0.601-4.49,0.601h-8.807V94.47z
				 M509.063,94.27c1.287,0,2.316-0.086,3.317-0.515c2.316-0.944,3.775-3.289,3.775-6.634c0-3.46-1.516-5.776-3.918-6.691
				c-1.029-0.429-1.944-0.458-3.174-0.458h-2.459V94.27H509.063z"/>
			<path class="st2" d="M528.485,94.47h2.431V79.801h-2.431V76.97h15.07v5.233h-3.203v-2.23h-5.69v5.576h6.691v3.002h-6.691v5.719
				h6.119v-2.288h3.203v5.29h-15.499V94.47z"/>
			<path class="st2" d="M552.167,94.47h2.402l1.201-14.669h-2.459V76.97h6.605l4.518,11.466c0.2,0.486,0.286,0.915,0.372,1.229
				l0.114,0.458h0.057l0.115-0.458c0.085-0.314,0.2-0.743,0.4-1.229l4.489-11.466h6.605v2.831h-2.431l1.172,14.669h2.402v2.802
				h-8.321V94.47h2.259l-0.744-10.237c-0.028-0.372,0-0.83,0.029-1.201l0.057-0.687h-0.086c-0.028,0.2-0.085,0.429-0.143,0.629
				c-0.086,0.372-0.2,0.829-0.343,1.172l-3.889,9.351h-3.203l-3.889-9.351c-0.114-0.343-0.229-0.801-0.314-1.172
				c-0.057-0.2-0.115-0.429-0.143-0.629h-0.114l0.057,0.687c0.028,0.372,0.057,0.829,0.028,1.201L558.23,94.47h2.288v2.802h-8.35
				V94.47z"/>
			<path class="st2" d="M589.463,94.47h2.459v-5.69l-5.404-8.979h-1.858V76.97h7.549v2.831h-1.973l3.088,5.319
				c0.143,0.229,0.229,0.429,0.314,0.629c0.057,0.086,0.086,0.2,0.114,0.286h0.058c0.028-0.086,0.057-0.2,0.114-0.286
				c0.086-0.2,0.2-0.4,0.343-0.629l3.088-5.319h-1.944V76.97h7.492v2.831h-1.83l-5.404,8.979v5.69h2.431v2.802h-8.636V94.47z"/>
		</g>
		<g>
			<path class="st2" d="M346.742,26.98C346.763,27.012,346.794,27.039,346.742,26.98L346.742,26.98z"/>
			<path class="st2" d="M355.135,51.403c0.25-0.097,0.432-0.321,0.561-0.56c0.259-0.477,0.371-0.88,0.408-1.422
				c0.063-0.943,0.059-1.875,0.055-2.813c0.005-0.002,0.012,0,0.017-0.003c0.04-0.024,0.058-0.072,0.073-0.117
				c0.126-0.374,0.179-0.773,0.157-1.169c-0.014-0.244,0.047-0.454,0.039-0.696c-0.01-0.315-0.017-0.629-0.015-0.944
				c0.004-0.614,0.034-1.227,0.091-1.838c0.116-1.249,0.128-2.506,0.366-3.746c0.303-1.58-0.137-3.193-0.599-4.7
				c-0.386-1.257-0.893-2.47-1.353-3.7c-0.687-1.839-1.413-3.664-2.178-5.471c-0.524-1.239-1.345-2.429-1.997-3.614
				c-0.297-0.54-0.602-1.091-1.057-1.5c-0.402-0.362-0.897-0.592-1.385-0.816c-0.753-0.347-1.471-0.791-2.277-1.006
				c-0.031-0.008-0.062-0.016-0.092-0.024c-0.19,0-0.432-0.112-0.617-0.158c-0.759-0.189-1.511-0.406-2.239-0.696
				c-0.07-0.028-0.142-0.057-0.202-0.104c-0.093-0.072-0.151-0.178-0.203-0.284c-0.111-0.229-0.21-0.465-0.322-0.695
				c0.358-0.212,0.745-0.241,1.118,0.068c0.167,0.138,0.384,0.251,0.572,0.352c0.396,0.213,0.94,0.416,1.397,0.091
				c0.204-0.145,0.367-0.374,0.455-0.626c0.078-0.223,0.043-0.485,0.214-0.666c0.071-0.075,0.162-0.117,0.239-0.184
				c0.2-0.172,0.274-0.515,0.158-0.731c0.045,0.085,0.329,0.091,0.407,0.03c0.113-0.089,0.137-0.247,0.203-0.372
				c0.076-0.143,0.184-0.265,0.28-0.395c0.014-0.019,0.029-0.039,0.049-0.048c0.028-0.013,0.056,0,0.082,0.011
				c0.198,0.088,0.428,0.102,0.65,0.04c0.104-0.029,0.212-0.078,0.288-0.172c0.11-0.134,0.132-0.326,0.137-0.5
				c0.013-0.399-0.02-0.794-0.098-1.169c-0.035-0.165-0.078-0.328-0.08-0.502c-0.005-0.503,0.438-0.698,0.66-1.086
				c0.153-0.267,0.18-0.65,0.244-0.945c0.101-0.493,0.225-0.979,0.283-1.474c0.027-0.228-0.087-0.673,0.072-0.867
				c0.047-0.057,0.106-0.099,0.158-0.149c0.25-0.235,0.294-0.598,0.28-0.92c-0.061-1.388-0.915-2.481-1.806-3.215
				c-1.233-1.016-2.777-1.732-4.381-1.863c-1.068-0.087-2.044-0.041-3.027,0.435c-1.247,0.604-2.401,1.483-3.028,2.72
				c-0.264-0.015-0.485,0.208-0.61,0.437c-0.016,0.03-0.025,0.063-0.041,0.094c-1.336-0.133-2.718,0.172-3.829,0.925
				c-0.837,0.567-1.51,1.375-1.92,2.299c-0.204,0.46-0.281,0.955-0.461,1.417c-0.235,0.6-0.456,1.204-0.651,1.819
				c-0.242,0.761-0.573,1.548-0.673,2.351c-0.009,0.071-0.016,0.141-0.021,0.212c-0.006,0.079-0.008,0.162,0.022,0.235
				c0.03,0.074,0.101,0.136,0.18,0.132c0.041-0.002,0.081-0.022,0.122-0.019c0.067,0.005,0.117,0.071,0.127,0.138
				c0.041,0.282-0.152,0.746-0.194,1.042c-0.099,0.692-0.143,1.407-0.132,2.12c-0.259,0.031-0.486-0.002-0.739,0.12
				c-0.072,0.035-0.142,0.077-0.218,0.1c-0.079,0.024-0.162,0.029-0.243,0.041c-0.473,0.07-0.834,0.405-1.018,0.825
				c-1.393,0.868-1.834,2.667-2.462,4.109c-0.64,1.469-1.283,2.942-1.83,4.449c-0.363,1.002-0.813,2.29-1.046,3.552
				c-0.078,0.161-0.16,0.322-0.226,0.488c-0.327,0.824-0.51,1.688-0.799,2.52c-0.285,0.819-0.497,1.66-0.717,2.497
				c-0.101,0.385-0.139,0.787-0.203,1.182c-0.06,0.374-0.111,0.75-0.18,1.122c-0.049,0.265-0.103,0.527-0.098,0.8
				c0.008,0.382-0.092,0.751-0.176,1.121c-0.044,0.192-0.089,0.384-0.114,0.579c-0.032,0.248-0.086,0.487-0.181,0.718
				c-0.016,0.04-0.028,0.083-0.034,0.126c-0.081,0.678-0.181,1.329-0.393,1.979c-0.148,0.453-0.305,0.895-0.39,1.365
				c-0.061,0.337-0.214,0.667-0.196,1.013c0.002,0.044,0.007,0.089,0.026,0.129c0.036,0.076,0.117,0.12,0.195,0.153
				c0.029,0.012,0.059,0.019,0.089,0.029c-0.069,0.333-0.144,0.665-0.266,0.976c-0.153,0.39-0.302,0.83-0.273,1.26
				c0.029,0.433-0.065,0.853-0.015,1.284c0.05,0.433,0.17,0.858,0.391,1.236c0.108,0.185,0.226,0.369,0.387,0.51
				s0.373,0.237,0.587,0.218c0.057-0.005,0.115-0.019,0.164-0.049c0.037-0.023,0.068-0.055,0.106-0.076
				c0.236-0.132,0.507,0.198,0.772,0.146c0.155-0.03,0.264-0.185,0.419-0.213c0.206-0.038,0.346,0.005,0.479-0.006
				c0.111-0.009,0.218-0.056,0.353-0.221c0.258-0.314,0.546-1.057,0.185-1.406c-0.159-0.154-0.282-0.071-0.349-0.318
				c-0.045-0.167-0.053-0.374-0.054-0.547c-0.002-0.266-0.01-0.506,0.148-0.739c0.166-0.243,0.335-0.12,0.384,0.146
				c0.045,0.241,0.077,0.477,0.105,0.712c0.012,0.098,0.023,0.197,0.033,0.296c0.031,0.284,0.22,0.347,0.474,0.236
				c0.224-0.098,0.377-0.482,0.375-0.705c-0.008-0.72-0.299-1.421-0.526-2.103c0.006-0.001,0.013,0,0.019-0.001
				c0.031-0.004,0.062-0.009,0.089-0.024c0.071-0.039,0.092-0.129,0.105-0.209c0.063-0.396,0.09-0.799,0.101-1.198
				c0.021-0.74,0.093-1.531,0.245-2.256c0.105-0.501,0.215-1.05,0.398-1.531c0.224-0.59,0.555-1.131,0.805-1.709
				c0.238-0.551,0.396-1.134,0.65-1.678c0.133-0.286,0.292-0.56,0.416-0.85c0.192-0.45,0.297-0.932,0.42-1.406
				c0.231-0.884,0.361-1.465,0.37-2.317c0.234-0.317,0.433-0.675,0.61-1.023c0.677-1.334,1.305-2.644,1.882-4.025
				c0.38-0.91,0.802-1.812,1.22-2.716c-0.001,0.168-0.003,0.336,0.004,0.5c0.076,1.696-0.455,3.076-0.597,4.712
				c-0.047,0.542-0.094,1.085-0.18,1.624c-0.091,0.575-0.227,1.144-0.271,1.725c-0.055,0.724,0.042,1.449-0.005,2.172
				c-0.039,0.611-0.291,1.243-0.418,1.85c-0.232,1.113-0.409,2.238-0.536,3.368c-0.052,0.46-0.087,0.921-0.109,1.384
				c-0.011,0.23-0.019,0.461-0.024,0.691c-0.005,0.217-0.063,0.394-0.122,0.603c-0.128,0.455-0.257,0.911-0.347,1.376
				c-0.074,0.381-0.228,0.879-0.066,1.251c0.092,0.213,0.258,0.376,0.295,0.609c0.039,0.248-0.008,0.483-0.048,0.729
				c-0.578,3.56-0.939,7.164-1.58,10.716c-0.385,2.135-0.679,4.286-1.038,6.426c-0.319,1.901-0.736,3.838-0.853,5.766
				c-0.098,1.62,0.303,3.302,0.517,4.905c0.446,3.337,1.102,6.621,1.769,9.916c0.253,1.25,0.673,2.5,0.535,3.791
				c-0.072,0.676,0.23,0.58,0.634,0.958c0.462,0.432-0.017,0.799-0.339,1.145c-0.755,0.812-1.628,1.51-2.39,2.299
				c-0.605,0.626-0.866,1.676-0.696,2.492c0.226,1.087,1.006,1.317,2.03,1.519c0.988,0.195,2.036,0.275,2.982-0.07
				c0.484-0.176,0.932-0.437,1.347-0.739c0.446-0.325,0.588-0.696,0.944-1.088c0.088-0.096,0.187-0.182,0.275-0.277
				c0.138-0.148,0.251-0.32,0.332-0.506c0.179-0.148,0.425-0.227,0.587-0.382c0.206-0.197,0.347-0.558,0.487-0.805
				c0.053-0.094,0.107-0.189,0.137-0.292c0.036-0.124,0.038-0.255,0.039-0.384c0.001-0.55-0.01-1.104-0.068-1.648
				c-0.062-0.576-0.119-0.995,0.15-1.508c0.39-0.744,0.077-1.534-0.137-2.301c-0.293-1.049-0.466-2.131-0.646-3.203
				c-0.513-3.056-1.025-6.111-1.538-9.167c-0.08-0.478-0.161-0.958-0.146-1.443c0.043-1.472,0.774-2.73,1.364-4.049
				c0.69-1.544,1.38-3.088,2.07-4.632c1.076-2.408,1.687-4.986,2.75-7.408c0.048-0.108,0.104-0.226,0.212-0.275
				c0.239-0.109,0.456,0.184,0.557,0.427c0.548,1.315,0.877,2.722,1.218,4.113c0.459,1.876,0.83,3.776,1.076,5.693
				c0.075,0.586,0.135,1.174,0.233,1.756c0.103,0.606,0.121,1.222,0.212,1.826c0.124,0.829,0.113,1.662,0.189,2.491
				c0.377,4.519,0.971,8.986,1.037,13.543c0.011,0.742,0.049,1.582,0.198,2.305c0.038,0.184,0.093,0.371,0.216,0.513
				c0.335,0.385,0.685,0.101,0.714,0.763c0.025,0.575,0.022,1.157-0.078,1.726c-0.264,1.511-0.982,2.837-1.072,4.393
				c-0.02,0.344-0.011,0.698,0.118,1.018c0.152,0.374,0.457,0.666,0.788,0.897c0.735,0.514,1.66,0.78,2.546,0.642
				c0.97-0.151,1.621-0.798,2.227-1.51c0.716-0.841,0.569-2.252,0.637-3.279c0.028-0.42,0.058-0.841,0.128-1.257
				c0.097-0.57,0.12-1.154,0.067-1.73c-0.034-0.37-0.296-0.956-0.181-1.31c0.089-0.276,0.408-0.284,0.505-0.501
				c0.175-0.393,0.108-0.818,0.088-1.251c-0.1-2.136-0.447-4.25-0.598-6.382c-0.234-3.321-0.483-6.652-0.361-9.978
				c0.297-8.063,0.069-11.659-0.154-17.5c-0.062-1.607-0.125-4.315-0.185-5.922c-0.022-0.595-0.075-1.048,0.175-1.579
				c0.273-0.58,0.578-0.769,0.482-1.487c-0.122-0.921-0.509-1.708-0.769-2.582c-0.59-1.987,0.013-3.043-0.223-5.069
				c-0.075-0.644-0.373-1.272-0.424-1.905c-0.134-1.651-0.294-3.301-0.399-4.954c-0.093-1.472-0.273-2.906-0.2-4.383
				c0.002-0.042,0.004-0.084,0.021-0.122c0.046-0.105,0.188-0.139,0.297-0.102c0.109,0.037,0.191,0.125,0.269,0.209
				c0.009,0.01,0.006,0.007,0.012,0.014c-0.018-0.025-0.024-0.046,0.057,0c0.121,0.07,0.204,0.191,0.284,0.307
				c0.922,1.36,1.909,2.666,2.638,4.127c0.697,1.396,1.835,2.553,2.274,4.082c0.072,0.25,0.124,0.509,0.237,0.742
				c0.059,0.122,0.134,0.237,0.175,0.366c0.121,0.387,0.094,0.801,0.121,1.2c0.031,0.458,0.034,0.922,0.041,1.384
				c0.032,2.08,0.157,4.157-0.472,6.167c-0.049,0.157-0.098,0.343,0,0.474c0.039,0.052,0.096,0.087,0.152,0.118
				c0.008,0.004,0.016,0.006,0.024,0.01c-0.014,0.041-0.023,0.084-0.047,0.12c-0.086,0.127-0.337,0.245-0.459,0.355
				c-0.184,0.167-0.369,0.331-0.549,0.501c-0.051,0.048-0.101,0.096-0.151,0.146c-0.381,0.373-0.457,0.71-0.4,1.26
				c0.031,0.3,0.112,0.607,0.126,0.907c0.01,0.208-0.065,0.397-0.058,0.61c0.014,0.393,0.194,0.728,0.625,0.68
				c0.081-0.009,0.166-0.039,0.242-0.006c0.08,0.034,0.119,0.123,0.167,0.196c0.143,0.216,0.423,0.327,0.67,0.265
				c0.094-0.024,0.195-0.069,0.284-0.029c0.08,0.037,0.118,0.129,0.166,0.204c0.153,0.239,0.491,0.332,0.74,0.202
				c0.091-0.047,0.172-0.121,0.273-0.137c0.1-0.015,0.199,0.029,0.293,0.07C354.492,51.43,354.833,51.52,355.135,51.403z
				 M335.353,13.743c-0.054,0.336-0.092,0.722-0.289,0.99c-0.186-0.783-0.282-1.545-0.228-2.378
				c0.064-0.979,0.319-1.933,0.386-2.912c0.063-0.924-0.031-1.91,0.42-2.719c0.087-0.156,0.295-0.487,0.439-0.592
				c0.245-0.178,0.499-0.201,0.755-0.163c0.012,0.109,0.037,0.213,0.107,0.296c0.095,0.112,0.249,0.15,0.397,0.138
				c0.008,0.14,0.011,0.281,0.024,0.421c0.124,1.258,0.331,2.365-0.024,3.604c-0.219,0.764-0.475,1.533-0.741,2.299
				c-0.005,0-0.01,0-0.014,0.001c-0.378,0.017-0.749-0.106-1.008,0.234C335.419,13.169,335.391,13.503,335.353,13.743z"/>
			<path class="st2" d="M392.516,83.966c-0.44-0.15-0.979-0.2-1.226-0.594c-0.073-0.116-0.11-0.25-0.174-0.371
				c-0.2-0.379-0.626-0.581-0.889-0.919c-0.341-0.438-0.364-1.034-0.424-1.586c-0.163-1.484-0.855-2.836-1.185-4.28
				c-0.106-0.464-0.209-0.871-0.36-1.279c0.272-0.022,0.544-0.045,0.815-0.071c2.189-0.21,3.752-1.319,5.032-3.097
				c0.1-0.138,0.203-0.286,0.216-0.456c0.008-0.103-0.023-0.214-0.104-0.277c-0.02-0.015-0.045-0.03-0.05-0.055
				c-0.003-0.016,0.003-0.033,0.009-0.048c0.056-0.144,0.114-0.289,0.171-0.433c0.331-0.832,0.673-1.666,0.947-2.517
				c0.264-0.819,0.346-1.649,0.237-2.513c-0.029-0.234-0.114-0.512-0.343-0.566c-0.075-0.018-0.154-0.006-0.231-0.005
				c-0.077,0.001-0.161-0.011-0.216-0.065c-0.077-0.076-0.081-0.426-0.092-0.531c-0.047-0.477-0.111-0.952-0.185-1.425
				c-0.064-0.409-0.22-0.814-0.344-1.214c-0.064-0.207-0.13-0.417-0.247-0.599c-0.077-0.119-0.212-0.235-0.345-0.187
				c-0.126,0.045-0.286,0.416-0.444,0.237c-0.242-0.274-0.382-0.609-0.576-0.915c-0.57-0.901-1.457-1.48-2.488-1.73
				c-0.171-0.042-0.353-0.073-0.522-0.025c-0.675,0.192-0.265,1.657-0.169,2.129c0.692,3.378,1.288,8.392-2.183,10.498
				c-0.291,0.177-0.631,0.307-0.977,0.437c-1.495-1.408-4.175-1.876-5.966-2.329c-1.217-0.308-2.267-0.886-3.119-1.865
				c-0.353-0.406-0.706-0.812-1.059-1.219c-0.104-0.12-0.211-0.245-0.254-0.397c-0.018-0.062-0.015-0.127-0.015-0.192
				c0.104-0.449,0.15-0.924,0.131-1.415c-0.023-0.624-0.187-1.235-0.234-1.857c-0.061-0.793,0.068-1.586,0.133-2.379
				c0.088-1.067,0.109-2.271,0.007-3.461c0.577-0.212,1.103-0.552,1.38-1.105c0.096-0.193,0.154-0.402,0.211-0.61
				c0.312-1.133,0.818-2.101,0.973-3.289c0.046-0.353,0.178-0.883-0.02-1.213c-0.014-0.023-0.029-0.045-0.047-0.066
				c-0.227-0.277-0.661-0.292-0.885-0.021c-0.103,0.125-0.169,0.275-0.25,0.416c-0.463,0.803-1.323,1.031-2.186,1.127
				c-0.115-0.244-0.218-0.481-0.2-0.802c0.024-0.4,0.143-0.782,0.218-1.173c0.014-0.071,0.027-0.14,0.041-0.21
				c0.092-0.48,0.152-0.927-0.164-1.37c-0.119-0.167-0.341-0.28-0.533-0.208c-0.1,0.038-0.178,0.118-0.251,0.196
				c-0.416,0.442-0.856,0.857-1.292,1.281c-0.094,0.092-0.173,0.194-0.255,0.293c-0.212-0.226-0.44-0.434-0.707-0.583
				c-0.303-0.17-0.655-0.275-0.999-0.231c-0.102,0.013-0.215,0.037-0.302-0.018c-0.052-0.033-0.084-0.088-0.114-0.141
				c-0.344-0.615-0.552-1.291-0.922-1.894c-0.253-0.411-0.451-0.823-0.674-1.249c-0.173-0.332-0.276-0.693-0.419-1.016
				c-0.054-0.121-0.108-0.244-0.188-0.351c-0.182-0.238-0.473-0.364-0.759-0.452c-0.204-0.062-0.679-0.243-0.891-0.217
				c-0.27,0.033-0.515,0.187-0.703,0.383c-0.205,0.213-0.313,0.448-0.442,0.703c-0.237,0.47-0.468,0.935-0.696,1.403
				c-0.275,0.566-0.363,1.154-0.54,1.753c-0.096,0.325-0.232,0.64-0.404,0.932c-0.144,0.244-0.456,0.468-0.55,0.727
				c-0.235,0.643-0.104,1.25,0.083,1.761c0.181,0.494,0.361,0.985,0.632,1.436c0.301,0.5,0.647,0.999,0.829,1.558
				c0.43,1.32-0.161,2.907-0.623,4.158c-0.299,0.81-0.662,1.686-1.277,2.294c-0.708,0.699-1.411,1.321-1.979,2.153
				c-0.285,0.417-0.348,0.819,0.248,0.909c-0.113,0.473-0.741,1.039-0.989,1.511c-0.297,0.565-0.516,1.171-0.646,1.796
				c-0.022,0.104-0.041,0.213-0.01,0.315c0.041,0.134,0.479,0.391,0.548,0.155c-0.1,0.34-0.087,0.751-0.041,1.103
				c0.033,0.25,0.117,0.522,0.076,0.775c-0.035,0.213-0.117,0.417-0.139,0.642c-0.052,0.537-0.029,1.077-0.03,1.615
				c-0.002,0.689-0.112,1.195-0.349,1.83c-0.511,1.371-1.023,2.742-1.534,4.113c-0.159,0.426-0.273,0.841-0.567,1.187
				c-1.111,1.303-2.066,2.739-2.839,4.267c-0.314,0.621-0.6,1.295-0.659,1.996c-0.062,0.736,0.236,1.205,0.513,1.848
				c0.272,0.632,0.658,1.229,0.989,1.836c0.133,0.239,0.268,0.48,0.447,0.686c0.749,0.858,2.045,1.324,3.087,0.718
				c0.33-0.192,0.565-0.519,0.714-0.87c0.313-0.742-0.005-1.767-0.813-2.031c-0.202-0.066-0.414-0.037-0.594-0.149
				c-0.157-0.098-0.322-0.298-0.444-0.437c-1.041-1.198,0.769-2.352,1.59-2.994c0.106-0.083,0.249-0.169,0.365-0.102
				c0.072,0.042,0.105,0.13,0.175,0.174c0.139,0.089,0.312-0.039,0.424-0.161c0.572-0.62,1.082-1.297,1.521-2.017
				c0.014,0.239,0.327,0.363,0.55,0.276s0.365-0.302,0.483-0.51c0.379-0.662,0.673-1.373,0.875-2.108
				c0.027-0.099,0.061-0.209,0.152-0.257c0.576-0.304,1.941,1.566,2.39,1.791c0.497,0.211,1.065,0.144,1.594,0.255
				c0.678,0.143,1.187,0.163,1.66,0.653c1.159,1.201,0.996,3.091,0.991,4.626c-0.003,0.88,0.128,1.741,0.152,2.629
				c0.04,1.473,0.361,2.919,0.649,4.359c0.116,0.581,0.205,1.072,0.147,1.656c-0.053,0.532,0.114,1.087-0.297,1.518
				c-0.347,0.363-0.632,0.683-0.577,1.23c0.074,0.731,0.774,1.242,1.481,1.246c0.66,0.004,1.575-0.243,1.987-0.797
				c0.279-0.375,0.354-0.86,0.383-1.325c0.084-1.323-0.283-1.614-0.128-2.923c0.066-0.554,0.105-1.111,0.115-1.669
				c0.006-0.319-0.096-0.974,0.041-1.25c0.033-0.066,0.082-0.122,0.117-0.187c0.062-0.116,0.075-0.251,0.085-0.382
				c0.104-1.432-0.159-2.852-0.106-4.287c0.006-0.172,0.018-0.354,0.113-0.498c0.309-0.469,0.946-0.369,1.081,0.134
				c0.337,1.259,1.547,2.081,1.657,3.422c0.027,0.328,0.042,0.666-0.065,0.978c-0.141,0.411-0.482,0.702-0.649,1.096
				c-0.144,0.34-0.353,0.643-0.233,1.017c0.13,0.408,0.397,0.646,0.793,0.789c0.173,0.062,0.353,0.109,0.537,0.121
				c1.106,0.07,1.686-1.028,1.995-1.924c0.228-0.664,0.38-1.36,0.374-2.064c-0.003-0.357-0.047-0.713-0.131-1.06
				c-0.057-0.235-0.163-0.458-0.197-0.699c-0.053-0.38,0.225-0.028,0.343-0.221c0.009-0.014,0.012-0.031,0.015-0.047
				c0.03-0.174-0.003-0.353-0.054-0.522c-0.05-0.164-0.326-0.684,0.004-0.641c0.175,0.022,0.253-0.216,0.239-0.392
				c-0.027-0.361-0.193-0.686-0.258-1.038c-0.065-0.352-0.095-0.729-0.124-1.089c-0.019-0.236,0.836-0.439,1.039-0.519
				c0.454-0.178,0.909-0.355,1.363-0.533c0.106-0.042,0.216-0.084,0.33-0.078c0.745,0.038,0.805,0.95,1.032,1.456
				c0.405,0.902,0.98,1.729,1.691,2.417c0.28,0.271,0.587,0.526,0.949,0.673c0.26,0.106,0.539,0.153,0.815,0.199
				c0.807,0.135,1.612,0.275,2.395,0.465c0.463,0.113,0.982,0.173,1.426,0.347c0.264,0.103,0.933,0.276,1.094,0.466
				c0.038,0.045,0.057,0.103,0.075,0.159c0.257,0.824,0.411,1.68,0.459,2.542c0.063,1.14-1.023,1.681-1.376,2.698
				c-0.123,0.356-0.175,0.779,0.045,1.084c0.179,0.249,0.492,0.355,0.784,0.448c0.278,0.088,0.56,0.177,0.85,0.188
				c1.298,0.054,2.111-1.18,2.264-2.344c0.131-0.998-0.033-2.382-0.056-3.008C395.219,87.901,394.891,84.775,392.516,83.966z
				 M370.965,53.209c-0.396,0.933-2.084,0.023-2.443-0.473c-0.595-0.823-0.818-1.983-1.627-2.644
				c-0.382-0.312-0.934-0.498-1.375-0.716c-0.357-0.177-0.889-0.163-0.851-0.663c0.012-0.161,0.093-0.537,0.151-0.688
				c0.112-0.289,0.223-0.578,0.334-0.866c0.033-0.086,0.073-0.179,0.153-0.222c0.314-0.17,0.634-0.152,0.969-0.042
				c0.329,0.108,0.618,0.328,0.863,0.567c0.124,0.122,0.234,0.248,0.326,0.366c0.427,0.552,0.696,1.213,0.829,1.896
				c0.129,0.656,0.347,1.102,0.643,1.711c0.063,0.131,0.131,0.262,0.217,0.379c0.14,0.191,0.3,0.368,0.444,0.558
				c0.172,0.228,0.472,0.43,0.761,0.438c0.144,0.004,0.294-0.005,0.426,0.053C370.917,52.921,371.021,53.076,370.965,53.209z"/>
		</g>
	</g>
</g>
</svg>
